<?xml version="1.0" encoding="UTF-8"?>
<svg id="Layer_2" data-name="Layer 2" xmlns="http://www.w3.org/2000/svg" viewBox="0 0 108.57 80">
  <defs>
    <style>
      .cls-1 {
        fill: #243c93;
      }

      .cls-2 {
        fill: #fff;
      }
    </style>
  </defs>
  <g id="Layer_2-2" data-name="Layer 2">
    <g>
      <g>
        <path class="cls-2" d="m32.07,77.61l-1.63-5.56h.85l1.15,4.46-.37,1.1Zm1.06-5.56h.85l-1.63,6.4c-.08.32-.24.55-.49.71-.25.16-.58.24-1.01.24h-.09v-.79h.09c.26,0,.46-.06.61-.18.14-.12.24-.29.29-.53l1.38-5.86Z"/>
        <path class="cls-2" d="m35.92,77.31c-.47,0-.84-.13-1.1-.4-.26-.26-.39-.63-.39-1.11v-2.36c0-.47.13-.84.39-1.1.26-.26.63-.39,1.1-.39s.84.13,1.1.39.39.62.39,1.1v2.37c0,.47-.13.84-.39,1.1-.26.26-.62.39-1.1.39Zm0-.8c.21,0,.37-.06.49-.19.12-.12.17-.3.17-.52v-2.34c0-.22-.06-.39-.17-.52-.12-.12-.28-.18-.49-.18s-.36.06-.48.18c-.11.12-.17.29-.17.52v2.34c0,.23.06.4.17.52.12.12.27.19.48.19Z"/>
        <path class="cls-2" d="m39.11,72.04v3.79c0,.22.06.38.18.5.12.12.3.17.52.17s.41-.06.52-.17c.11-.12.17-.29.17-.52l.07.66c-.1.28-.24.49-.42.63-.18.14-.41.21-.67.21-.39,0-.69-.13-.9-.38-.21-.25-.31-.61-.31-1.08v-3.8h.83Zm1.4,5.19v-5.19h.83v5.19h-.83Z"/>
        <path class="cls-2" d="m42.45,77.23v-5.19h.83v5.19h-.83Zm2.37-4.47h-.1c-.44,0-.78.11-1.03.32-.25.21-.39.5-.4.87l-.11-1c.18-.31.41-.56.7-.73s.6-.26.95-.26v.81Z"/>
        <path class="cls-2" d="m47.31,72.8v-.76h2.39v.76h-2.39Zm.53,4.43v-5.89c0-.45.11-.79.33-1.02.22-.24.54-.35.96-.35h.57v.78h-.54c-.16,0-.28.05-.36.16-.08.11-.12.25-.12.42v5.9h-.83Z"/>
        <path class="cls-2" d="m50.5,70.97v-.83h.84v.83h-.84Zm0,6.26v-5.19h.84v5.19h-.84Z"/>
        <path class="cls-2" d="m52.48,77.23v-5.19h.83v5.19h-.83Zm2.33,0v-3.63c0-.29-.06-.51-.19-.65-.12-.14-.31-.22-.56-.22s-.44.08-.56.23c-.12.15-.19.39-.19.7l-.11-.74c.12-.33.28-.57.49-.73.21-.16.45-.24.72-.24.41,0,.71.13.92.38.21.25.31.63.31,1.13v3.77h-.83Z"/>
        <path class="cls-2" d="m57.99,77.31c-.44,0-.77-.12-.99-.36-.22-.24-.33-.61-.33-1.09,0-.58.13-1.02.4-1.31s.67-.43,1.2-.43h.8l.07.68h-.86c-.27,0-.48.09-.62.26s-.2.44-.2.79c0,.26.06.45.18.58.12.12.31.19.55.19.28,0,.49-.07.63-.22.14-.15.21-.38.21-.68l.1.46c0,.25-.05.46-.13.63s-.21.3-.38.38c-.17.08-.38.12-.63.12Zm1.04-.08v-3.8c0-.24-.07-.43-.2-.56s-.32-.2-.56-.2c-.21,0-.38.07-.5.2-.12.13-.18.32-.17.57h-.81c0-.47.13-.84.4-1.1.26-.26.63-.39,1.11-.39s.86.13,1.13.39c.27.26.4.62.4,1.09v3.8h-.79Z"/>
        <path class="cls-2" d="m60.92,77.23v-5.19h.83v5.19h-.83Zm2.33,0v-3.63c0-.29-.06-.51-.19-.65-.12-.14-.31-.22-.56-.22s-.44.08-.56.23-.19.39-.19.7l-.1-.74c.12-.33.28-.57.49-.73.21-.16.45-.24.72-.24.41,0,.71.13.92.38s.31.63.31,1.13v3.77h-.83Z"/>
        <path class="cls-2" d="m66.66,77.31c-.5,0-.89-.13-1.16-.41-.27-.27-.41-.65-.41-1.14v-2.18c0-.52.14-.92.41-1.2s.66-.42,1.16-.42.89.14,1.17.42c.27.28.41.69.41,1.21v.1h-.81v-.1c0-.27-.07-.48-.2-.63-.13-.15-.32-.22-.56-.22s-.42.07-.55.22c-.13.15-.2.35-.2.62v2.18c0,.25.07.44.2.57.13.13.32.2.55.2s.43-.07.56-.21c.13-.14.2-.33.2-.58v-.11h.82v.11c0,.5-.14.88-.42,1.16-.28.27-.67.41-1.17.41Z"/>
        <path class="cls-2" d="m69.09,70.97v-.83h.84v.83h-.84Zm0,6.26v-5.19h.84v5.19h-.84Z"/>
        <path class="cls-2" d="m72.32,77.31c-.44,0-.77-.12-.99-.36-.22-.24-.33-.61-.33-1.09,0-.58.13-1.02.4-1.31s.67-.43,1.2-.43h.8l.07.68h-.86c-.27,0-.48.09-.62.26s-.2.44-.2.79c0,.26.06.45.18.58.12.12.31.19.55.19.28,0,.49-.07.63-.22.14-.15.21-.38.21-.68l.1.46c0,.25-.05.46-.13.63s-.21.3-.38.38c-.17.08-.38.12-.63.12Zm1.04-.08v-3.8c0-.24-.07-.43-.2-.56s-.32-.2-.56-.2c-.21,0-.38.07-.5.2-.12.13-.18.32-.17.57h-.81c0-.47.13-.84.4-1.1.26-.26.63-.39,1.11-.39s.86.13,1.13.39c.27.26.4.62.4,1.09v3.8h-.79Z"/>
        <path class="cls-2" d="m76.09,69.96v5.9c0,.18.04.33.12.43s.2.15.35.15h.31v.79h-.4c-.38,0-.68-.12-.9-.36-.21-.24-.32-.58-.32-1.01v-5.89h.83Z"/>
        <path class="cls-2" d="m80.8,77.32c-.38,0-.68-.14-.9-.41-.22-.27-.32-.65-.32-1.15v-2.2c0-.51.11-.91.32-1.19.21-.28.51-.42.9-.42.25,0,.47.08.67.24.2.16.37.38.5.67l-.11.72c0-.19-.03-.35-.08-.48-.06-.13-.14-.23-.24-.3-.11-.07-.24-.1-.4-.1-.23,0-.4.08-.53.23-.13.16-.19.38-.19.66v2.15c0,.26.06.46.19.6.13.14.31.21.53.21.16,0,.29-.03.4-.1.11-.07.19-.17.24-.29s.08-.28.08-.46l.07.71c-.09.29-.24.51-.44.67s-.43.24-.7.24Zm1.06-.09v-7.27h.83v7.27h-.83Z"/>
        <path class="cls-2" d="m85.27,77.31c-.5,0-.89-.15-1.16-.45-.28-.3-.42-.73-.42-1.27v-1.8c0-.58.13-1.03.4-1.35.27-.32.65-.48,1.13-.48s.88.15,1.15.44c.27.29.4.71.4,1.25v1.32h-2.54v-.72h1.72v-.58c0-.3-.06-.54-.19-.7-.13-.16-.31-.25-.55-.25s-.41.09-.53.26c-.13.17-.19.42-.19.74v1.88c0,.29.07.52.2.68.13.16.32.24.56.24.23,0,.4-.06.53-.19.13-.12.19-.3.18-.53v-.03h.82v.03c0,.47-.13.84-.4,1.1s-.64.39-1.13.39Z"/>
        <path class="cls-2" d="m89.12,77.31c-.5,0-.89-.13-1.16-.4-.27-.27-.41-.65-.41-1.15v-.02h.8v.02c0,.27.06.47.19.62.13.14.32.21.58.21s.44-.07.57-.2c.13-.13.19-.33.19-.58,0-.17-.04-.3-.12-.4-.08-.1-.18-.17-.32-.23-.13-.06-.28-.11-.44-.16-.16-.05-.32-.11-.49-.18-.16-.07-.32-.15-.45-.26s-.25-.25-.33-.42c-.08-.17-.13-.4-.13-.67,0-.49.13-.86.38-1.12.25-.26.62-.39,1.08-.39s.84.12,1.09.37c.25.25.38.61.38,1.08v.02h-.8v-.02c0-.24-.06-.42-.17-.54-.11-.12-.28-.18-.5-.18s-.38.07-.49.2-.17.32-.17.56c0,.18.04.32.12.42.08.1.19.18.33.24.13.06.28.11.44.16.16.05.32.1.48.16s.31.15.45.25c.13.11.24.25.32.42.08.18.12.41.12.7,0,.49-.13.86-.4,1.12-.27.26-.66.39-1.17.39Z"/>
        <path class="cls-2" d="m91.54,70.97v-.83h.84v.83h-.84Zm0,6.26v-5.19h.84v5.19h-.84Z"/>
        <path class="cls-2" d="m94.64,77.32c-.38,0-.68-.14-.9-.41s-.32-.65-.32-1.15v-2.2c0-.51.11-.91.32-1.19.21-.28.51-.42.9-.42.25,0,.47.08.68.24.21.16.37.38.49.67l-.1.71c0-.19-.03-.35-.08-.48s-.14-.23-.25-.3-.24-.1-.39-.1c-.23,0-.41.08-.54.23-.13.16-.19.38-.19.66v2.18c0,.26.06.46.19.61.13.14.3.21.54.21.16,0,.29-.03.39-.1s.19-.17.25-.29c.06-.13.08-.28.08-.46l.07.7c-.09.29-.24.51-.44.67s-.43.24-.7.24Zm.32,2.02c-.48,0-.86-.13-1.12-.39-.26-.26-.4-.63-.4-1.1v-.06h.83v.06c0,.23.06.41.19.54.13.13.3.19.53.19s.4-.06.53-.18c.12-.12.18-.3.18-.53v-5.83h.83v5.83c0,.46-.14.82-.41,1.08-.27.26-.66.38-1.17.38Z"/>
        <path class="cls-2" d="m97.64,77.23v-5.19h.83v5.19h-.83Zm2.33,0v-3.63c0-.29-.06-.51-.19-.65-.12-.14-.31-.22-.56-.22s-.44.08-.56.23c-.12.15-.19.39-.19.7l-.11-.74c.12-.33.28-.57.49-.73.21-.16.45-.24.72-.24.41,0,.71.13.92.38.21.25.31.63.31,1.13v3.77h-.83Z"/>
        <path class="cls-2" d="m103.39,77.31c-.5,0-.89-.15-1.17-.45-.28-.3-.42-.73-.42-1.27v-1.8c0-.58.14-1.03.41-1.35s.65-.48,1.13-.48.88.15,1.15.44.41.71.41,1.25v1.32h-2.54v-.72h1.72v-.58c0-.3-.06-.54-.19-.7-.13-.16-.31-.25-.55-.25s-.41.09-.54.26-.19.42-.19.74v1.88c0,.29.07.52.2.68.13.16.32.24.57.24.23,0,.4-.06.53-.19.13-.12.19-.3.19-.53v-.03h.81v.03c0,.47-.13.84-.4,1.1s-.64.39-1.13.39Z"/>
        <path class="cls-2" d="m105.92,77.23v-5.19h.83v5.19h-.83Zm2.37-4.47h-.1c-.44,0-.78.11-1.03.32-.25.21-.39.5-.4.87l-.11-1c.18-.31.41-.56.7-.73s.6-.26.95-.26v.81Z"/>
      </g>
      <g id="Logo">
        <g>
          <path class="cls-1" d="m33.93,63.09c-9.74,0-17.64-7.88-17.64-17.6s7.9-17.6,17.64-17.6c5.87,0,11.06,2.86,14.27,7.25h5.73c-3.75-7.2-11.3-12.13-20-12.13-12.44,0-22.52,10.06-22.52,22.47s10.08,22.47,22.52,22.47h74.64v-4.87H33.93"/>
          <polyline class="cls-1" points="54.65 21.46 54.65 11.85 49.16 11.85 49.16 15.77 33.93 0 0 35.15 9.32 35.15 33.93 9.66 58.54 35.15 67.86 35.15 54.65 21.46"/>
        </g>
      </g>
      <g>
        <path class="cls-1" d="m42.22,38.72l-1.45,3.05h-3.33c.16.18.32.42.48.71.15.29.26.58.31.88h4l-1.45,3.05h-2.54c-.12.66-.36,1.26-.72,1.8-.36.54-.82,1-1.36,1.4-.54.4-1.16.71-1.85.96-.69.24-1.41.4-2.18.46l7.9,7.91h-5.14l-7.29-7.69v-3.05h2.15c.27,0,.61-.02,1.03-.06.42-.04.83-.12,1.24-.24.41-.12.79-.3,1.13-.54.34-.23.57-.55.7-.96h-6.97l1.45-3.05h5.51c-.12-.37-.33-.66-.64-.87-.31-.21-.68-.37-1.11-.48-.43-.11-.91-.17-1.45-.2-.53-.03-1.08-.04-1.66-.04h-2.11l1.45-3.05h13.9Z"/>
        <g>
          <polygon class="cls-1" points="48.63 50.16 47.97 50.16 47.97 58.84 49.78 58.84 49.78 55.4 53.57 55.4 53.57 53.82 49.78 53.82 49.78 51.73 54.3 51.73 54.3 50.16 49.78 50.16 48.63 50.16"/>
          <rect class="cls-1" x="55.56" y="50.16" width="1.88" height="8.69"/>
          <polygon class="cls-1" points="65.08 56.52 61.65 50.16 59.43 50.16 59.43 58.84 61.17 58.84 61.17 52.58 64.58 58.84 66.82 58.84 66.82 50.16 65.08 50.16 65.08 56.52"/>
          <path class="cls-1" d="m74.64,54.37c-.31-.18-.64-.31-1.01-.4-.37-.09-.74-.17-1.11-.24-.34-.06-.65-.12-.94-.19s-.53-.18-.71-.32c-.18-.14-.27-.35-.27-.63h0c0-.3.15-.54.46-.7.31-.17.74-.25,1.29-.25.37,0,.76.06,1.16.19.4.13.79.31,1.16.54l.77-1.39c-.46-.29-.97-.51-1.51-.67-.54-.16-1.07-.24-1.59-.24-1.13,0-2.01.23-2.63.7-.62.46-.93,1.12-.93,1.97h0c0,.53.1.95.3,1.27.2.31.46.56.78.73.32.17.68.29,1.06.37.38.08.76.14,1.14.19.31.04.6.1.87.16.27.06.48.16.65.3.16.13.25.33.25.58h0c0,.34-.16.59-.49.77-.33.18-.79.27-1.38.27-.51,0-1.01-.07-1.5-.22-.49-.15-.92-.36-1.29-.64l-.84,1.35c.31.23.66.42,1.04.58.38.16.8.28,1.24.37.44.08.89.13,1.35.13,1.17,0,2.07-.23,2.71-.69.64-.46.96-1.11.96-1.94h0c0-.5-.09-.9-.27-1.21-.18-.31-.42-.55-.73-.72Z"/>
          <polygon class="cls-1" points="77.83 50.16 77.17 50.16 77.17 58.84 77.83 58.84 78.99 58.84 83.63 58.84 83.63 57.27 78.99 57.27 78.99 55.32 82.9 55.32 82.9 53.74 78.99 53.74 78.99 51.73 83.63 51.73 83.63 50.16 78.99 50.16 77.83 50.16"/>
          <path class="cls-1" d="m90.91,55.03c.4-.22.71-.52.93-.91s.33-.85.33-1.37-.11-.98-.33-1.37c-.22-.39-.53-.69-.93-.91-.4-.21-.87-.32-1.4-.32h-4.22v8.69h1.82v-3.49h1.1l2.17,3.49h2.2l-2.3-3.58c.23-.05.44-.13.63-.24Zm-3.81-3.3h2.26c.29,0,.52.09.69.28.17.19.26.43.26.74,0,.31-.09.55-.26.74-.17.19-.4.28-.68.28h-2.26v-2.04Z"/>
          <polygon class="cls-1" points="97 55.95 94.95 50.16 93.08 50.16 96.29 58.84 97.7 58.84 100.91 50.16 99.04 50.16 97 55.95"/>
          <polygon class="cls-1" points="108.57 51.73 108.57 50.16 103.92 50.16 102.76 50.16 102.11 50.16 102.11 58.84 102.76 58.84 103.92 58.84 108.57 58.84 108.57 57.27 103.92 57.27 103.92 55.32 107.84 55.32 107.84 53.74 103.92 53.74 103.92 51.73 108.57 51.73"/>
          <path class="cls-1" d="m53.63,43.6c.4-.22.71-.52.93-.91.22-.39.33-.85.33-1.37s-.11-.98-.33-1.37c-.22-.39-.53-.69-.93-.91-.4-.21-.87-.32-1.4-.32h-4.22v8.69h1.82v-3.49h1.1l2.17,3.49h2.2l-2.3-3.58c.23-.05.44-.13.63-.24Zm-3.81-3.3h2.26c.29,0,.52.09.69.28.17.19.26.43.26.74,0,.31-.09.55-.26.74-.17.19-.4.28-.68.28h-2.26v-2.04Z"/>
          <polygon class="cls-1" points="61.39 47.41 66.03 47.41 66.03 45.84 61.39 45.84 61.39 43.89 65.3 43.89 65.3 42.31 61.39 42.31 61.39 40.31 66.03 40.31 66.03 38.73 61.39 38.73 60.23 38.73 59.57 38.73 59.57 47.41 60.23 47.41 61.39 47.41"/>
          <path class="cls-1" d="m74.32,38.73h-1.15l-3.69,8.69h1.96l.54-1.39h3.53l.54,1.39h1.96l-3.69-8.69Zm-1.73,5.72l1.15-2.96,1.15,2.96h-2.31Z"/>
          <polygon class="cls-1" points="88.37 45.84 83.73 45.84 83.73 38.73 81.92 38.73 81.92 47.41 82.72 47.41 83.73 47.41 88.37 47.41 88.37 45.84"/>
          <polygon class="cls-1" points="93.32 47.41 95.13 47.41 95.13 40.31 97.76 40.31 97.76 38.73 90.69 38.73 90.69 40.31 93.32 40.31 93.32 47.41"/>
          <polygon class="cls-1" points="103.51 47.41 105.33 47.41 105.33 44.06 108.17 38.73 106.27 38.73 104.42 42.47 102.58 38.73 100.68 38.73 103.51 44.06 103.51 47.41"/>
        </g>
      </g>
    </g>
  </g>
</svg>